# xmcd
#
# Track frame offsets: 
#        150
#        12783
#        27981
#        39613
#        56014
#        70621
#        82738
#        93058
#        109045
#        121402
#        135085
#        150613
#
# Disc length: 2161 seconds
#
# Revision: 5
# Processed by: cddbd v1.5.2PL0 Copyright (c) Steve Scherf et al.
# Submitted via: ExactAudioCopyFreeDBPlugin 1.0
#
DISCID=82086f0c
DTITLE=Willie Nelson - Countryman
DYEAR=2005
DGENRE=Reggae
TTITLE0=Do You Mind Too Much If I Don't Understand
TTITLE1=How Long is Forever
TTITLE2=I'm a Worried Man (ft Toots Hibbert)
TTITLE3=The Harder They Come
TTITLE4=Something to Think About
TTITLE5=Sitting in Limbo
TTITLE6=Darkness on the Face of the Earth
TTITLE7=One In A Row
TTITLE8=I've Just Destroyed the World
TTITLE9=You Left Me a Long, Long Time Ago
TTITLE10=I Guess I've Come to Live Here
TTITLE11=Undo the Right
EXTD=Country/Reggae
EXTT0=
EXTT1=
EXTT2=
EXTT3=
EXTT4=
EXTT5=
EXTT6=
EXTT7=
EXTT8=
EXTT9=
EXTT10=
EXTT11=
PLAYORDER=
